<svg id="visual" viewBox="0 0 900 300" width="900" height="300" xmlns="http://www.w3.org/2000/svg" xmlns:xlink="http://www.w3.org/1999/xlink" version="1.1"><rect x="0" y="0" width="900" height="300" fill="#bc002d"></rect><path d="M0 196L21.5 203.2C43 210.3 86 224.7 128.8 231.2C171.7 237.7 214.3 236.3 257.2 228.3C300 220.3 343 205.7 385.8 198.5C428.7 191.3 471.3 191.7 514.2 203C557 214.3 600 236.7 642.8 244.7C685.7 252.7 728.3 246.3 771.2 238.3C814 230.3 857 220.7 878.5 215.8L900 211L900 301L878.5 301C857 301 814 301 771.2 301C728.3 301 685.7 301 642.8 301C600 301 557 301 514.2 301C471.3 301 428.7 301 385.8 301C343 301 300 301 257.2 301C214.3 301 171.7 301 128.8 301C86 301 43 301 21.5 301L0 301Z" fill="#fff" stroke-linecap="round" stroke-linejoin="miter"></path></svg>