<svg id="visual" viewBox="0 0 900 300" width="900" height="300" xmlns="http://www.w3.org/2000/svg" xmlns:xlink="http://www.w3.org/1999/xlink" version="1.1"><rect x="0" y="0" width="900" height="300" fill="#fff"></rect><path d="M0 252L21.5 242.5C43 233 86 214 128.8 214C171.7 214 214.3 233 257.2 236C300 239 343 226 385.8 218.8C428.7 211.7 471.3 210.3 514.2 215.8C557 221.3 600 233.7 642.8 231C685.7 228.3 728.3 210.7 771.2 208C814 205.3 857 217.7 878.5 223.8L900 230L900 301L878.5 301C857 301 814 301 771.2 301C728.3 301 685.7 301 642.8 301C600 301 557 301 514.2 301C471.3 301 428.7 301 385.8 301C343 301 300 301 257.2 301C214.3 301 171.7 301 128.8 301C86 301 43 301 21.5 301L0 301Z" fill="#bc002d" stroke-linecap="round" stroke-linejoin="miter"></path></svg>